<?xml version="1.0" encoding="utf-8"?>
<!-- Generator: Adobe Illustrator 27.6.1, SVG Export Plug-In . SVG Version: 6.00 Build 0)  -->
<svg version="1.1" id="Calque_1" xmlns="http://www.w3.org/2000/svg" xmlns:xlink="http://www.w3.org/1999/xlink" x="0px" y="0px"
	 viewBox="0 0 1305 593" style="enable-background:new 0 0 1305 593;" xml:space="preserve">
<style type="text/css">
	.st0{fill-rule:evenodd;clip-rule:evenodd;fill:#FFFFFF;}
	.st1{fill:#FFFFFF;}
</style>
<g>
	<polygon class="st0" points="127.3,324.4 127.3,189.9 19,252.5 19,383.8 236.2,509.2 236.2,387.3 	"/>
	<polygon class="st0" points="127.3,16.6 127.3,138.5 236.2,201.4 236.2,335.9 344.5,273.3 344.5,142 	"/>
</g>
<g>
	<g>
		<path class="st1" d="M471.9,423.3c0,2.6-0.3,5.3-0.3,7.9H322c4,37.3,32.4,61.7,70,61.7c27.1,0,47.5-12.5,57.1-30l14.5,8.6
			c-13.5,22.4-39.3,37.3-72,37.3c-50.8,0-86.8-36.3-86.8-86.2c0-48.5,35-86.2,85.5-86.2C440.5,336.5,471.9,378.1,471.9,423.3z
			 M322,415h132.7c-3.6-40.3-32-62.7-64.4-62.7C352.7,352.3,325.3,378.4,322,415z"/>
		<path class="st1" d="M712.2,505.2h-16.5V356.3h-72.3v148.9h-16.8V356.3h-72.3v148.9h-16.8V356.3H489v-16.2h28.4v-8.9
			c0-40.6,22.8-64,66-60.7v15.8c-33.7-2.6-49.2,12.9-49.2,44.9v8.9h72.3v-12.2c0-40.6,22.4-60.7,66-60.7c10.6,0,20.8,1.3,32,3.6V286
			c-10.9-2-21.1-3-32-3c-34,0-49.2,12.9-49.2,44.9v12.2h88.8V505.2z"/>
		<path class="st1" d="M925.2,274.1v231.1h-16.5v-38.3c-13.5,25.4-39,41.9-71,41.9c-47.2,0-85.5-37.3-85.5-86.2
			c0-48.9,38.3-86.2,85.5-86.2c32,0,57.4,16.5,71,41.9V274.1H925.2z M908.6,422.6c0-39.3-30.7-70.3-70-70.3c-39.3,0-70,31-70,70.3
			s30.7,70.3,70,70.3C877.9,493,908.6,461.9,908.6,422.6z"/>
		<path class="st1" d="M1114.6,340.1l-71.3,180.3c-12.5,31.7-37,53.2-65.4,50.8v-15.5c22.1,2,39-14.5,49.2-38.6l3.6-8.9l-75.9-168
			h17.8l66.7,146.9l57.4-146.9H1114.6z"/>
		<path class="st1" d="M1284,402.5v102.7h-16.8V402.5c0-30.4-17.5-50.2-48.5-50.2c-32.4,0-57.8,21.1-57.8,65.7v87.2h-16.5V340.1
			h16.5v31.4c12.5-24.4,33.7-35,59.1-35C1259.2,336.5,1284,362.6,1284,402.5z"/>
	</g>
</g>
</svg>
