<svg xmlns="http://www.w3.org/2000/svg" xmlns:xlink="http://www.w3.org/1999/xlink" width="34.8" height="35.21" viewBox="0 0 34.8 35.21"><defs><linearGradient id="a" x1="0.5" x2="0.5" y2="1" gradientUnits="objectBoundingBox"><stop offset="0" stop-color="#8e00d2"/><stop offset="1" stop-color="#04329a"/></linearGradient><clipPath id="b"><rect width="34.8" height="35.21" fill="url(#a)"/></clipPath><linearGradient id="c" x1="0.5" x2="0.5" y2="1" gradientUnits="objectBoundingBox"><stop offset="0" stop-color="#d000ec"/><stop offset="1" stop-color="#04329a"/></linearGradient></defs><path d="M4,0H23a4,4,0,0,1,4,4V21a4,4,0,0,1-4,4l-8.763.631s-.394,3.863-8.581,5C8.156,26.425,7.923,25,7.923,25H4a4,4,0,0,1-4-4V4A4,4,0,0,1,4,0Z" transform="translate(5.8 3)" fill="#fff"/><g clip-path="url(#b)"><path d="M43.814,163.946A12.2,12.2,0,0,1,40.1,163.4a.746.746,0,0,1,.242-1.449,5.461,5.461,0,0,0,3.558-1.436,3.744,3.744,0,0,0,.8-2.985.745.745,0,0,1,1.483-.146A5.162,5.162,0,0,1,45,161.517a5.028,5.028,0,0,1-1.147.937c.324,0,.663-.015,1.014-.049a9.87,9.87,0,0,0,7.55-4.711.745.745,0,0,1,1.245.821,11.4,11.4,0,0,1-8.718,5.38c-.392.035-.771.05-1.132.05" transform="translate(-32.597 -128.996)" fill="url(#c)"/><path d="M42.606,163a12.536,12.536,0,0,1-3.8-.562,1.005,1.005,0,0,1,.326-1.954,5.218,5.218,0,0,0,3.366-1.35,3.5,3.5,0,0,0,.732-2.786,1.005,1.005,0,0,1,2-.2,5.411,5.411,0,0,1-1.243,4.334,4.959,4.959,0,0,1-.483.468l.133-.012a9.622,9.622,0,0,0,7.358-4.6,1.005,1.005,0,0,1,1.679,1.106,11.656,11.656,0,0,1-8.912,5.5c-.382.034-.771.051-1.155.051m1.624-7.236-.048,0a.484.484,0,0,0-.435.531,3.992,3.992,0,0,1-.862,3.184A5.71,5.71,0,0,1,39.135,161a.486.486,0,0,0-.158.944,11.97,11.97,0,0,0,3.629.532c.369,0,.742-.017,1.109-.05a11.151,11.151,0,0,0,8.524-5.264.486.486,0,0,0-.138-.673.5.5,0,0,0-.673.138,10.119,10.119,0,0,1-7.743,4.826c-.343.033-.692.049-1.038.05h0a.26.26,0,0,1-.134-.482,4.781,4.781,0,0,0,1.088-.889,4.914,4.914,0,0,0,1.112-3.936.484.484,0,0,0-.484-.438" transform="translate(-31.389 -127.786)" fill="url(#a)"/><path d="M51.2,39.029H42.264a.745.745,0,1,1,0-1.491H51.2a5.247,5.247,0,0,0,5.229-5.253V18.552A5.2,5.2,0,0,0,51.2,13.387H35.03a5.1,5.1,0,0,0-5.14,5.165V32.285a5.2,5.2,0,0,0,5.14,5.253h1.121a.745.745,0,1,1,0,1.491H35.03A6.7,6.7,0,0,1,28.4,32.285V18.552A6.573,6.573,0,0,1,35.03,11.9H51.2a6.7,6.7,0,0,1,6.719,6.656V32.285A6.739,6.739,0,0,1,51.2,39.029" transform="translate(-23.377 -9.792)" fill="url(#a)"/><path d="M49.989,38.079H41.055a1.005,1.005,0,1,1,0-2.01h8.934a4.987,4.987,0,0,0,4.969-4.994V17.343a4.943,4.943,0,0,0-4.969-4.905H33.822a4.841,4.841,0,0,0-4.881,4.905V31.075a4.943,4.943,0,0,0,4.881,4.994h1.121a1.005,1.005,0,1,1,0,2.01H33.822a6.956,6.956,0,0,1-6.891-7V17.343a6.83,6.83,0,0,1,6.891-6.916H49.989a6.956,6.956,0,0,1,6.979,6.916V31.075a7,7,0,0,1-6.979,7m-8.934-1.491a.486.486,0,1,0,0,.971h8.934a6.479,6.479,0,0,0,6.46-6.484V17.343a6.435,6.435,0,0,0-6.46-6.4H33.822a6.316,6.316,0,0,0-6.371,6.4V31.075a6.436,6.436,0,0,0,6.371,6.484h1.121a.486.486,0,1,0,0-.971H33.822a5.463,5.463,0,0,1-5.4-5.513V17.343a5.355,5.355,0,0,1,5.4-5.425H49.989a5.463,5.463,0,0,1,5.489,5.425V31.075a5.507,5.507,0,0,1-5.489,5.513Z" transform="translate(-22.168 -8.583)" fill="url(#c)"/><path d="M91.118,158.118a.745.745,0,1,1,.528-.217.75.75,0,0,1-.528.217" transform="translate(-74.39 -128.927)" fill="url(#a)"/><path d="M89.91,157.169a1.005,1.005,0,1,1,.711-.294,1.01,1.01,0,0,1-.711.294m0-1.491a.5.5,0,0,0-.342.143.484.484,0,0,0,0,.687.5.5,0,0,0,.686,0,.487.487,0,0,0-.344-.83" transform="translate(-73.182 -127.719)" fill="url(#a)"/><path d="M2.253,54.719a.745.745,0,0,1-.745-.745c0-.216-.007-.326-.016-.454-.015-.229-.032-.488-.018-1.277a.746.746,0,1,1,1.491.025c-.013.728,0,.955.015,1.155.009.141.019.287.019.551a.745.745,0,0,1-.745.745" transform="translate(-1.209 -42.4)" fill="url(#a)"/><path d="M1.043,53.77A1.006,1.006,0,0,1,.038,52.765c0-.207-.007-.313-.015-.436-.015-.233-.032-.5-.019-1.3a1.01,1.01,0,0,1,1-.988h.02a1.007,1.007,0,0,1,.987,1.022c-.013.719,0,.939.015,1.133.009.137.019.293.019.568A1.006,1.006,0,0,1,1.043,53.77m-.026-3.21a.49.49,0,0,0-.494.478c-.013.781,0,1.033.018,1.256.008.128.016.247.016.471a.486.486,0,0,0,.971,0c0-.259-.009-.4-.018-.534-.013-.2-.029-.436-.016-1.176a.486.486,0,0,0-.477-.494Z" transform="translate(0 -41.191)" fill="url(#a)"/><path d="M2.536,9.089H2.5a.746.746,0,0,1-.7-.784,1.39,1.39,0,0,1,.053-.342c0-.01,0-.021,0-.034C1.765,4.217,3.126,2.11,6.005,1.486a.745.745,0,1,1,.316,1.457C4.8,3.272,3.254,4.119,3.334,7.9a1.309,1.309,0,0,1-.054.471s0,.01,0,.016a.745.745,0,0,1-.744.706" transform="translate(-1.473 -1.209)" fill="url(#a)"/><path d="M1.327,8.14H1.277A1.005,1.005,0,0,1,.322,7.081,1.767,1.767,0,0,1,.375,6.72C.3,2.866,1.724.677,4.741.023a1.005,1.005,0,0,1,1.2.769,1,1,0,0,1-.77,1.195C3.677,2.31,2.309,3.1,2.385,6.682a1.6,1.6,0,0,1-.056.522,1,1,0,0,1-1,.935M4.954.519a.488.488,0,0,0-.1.011C2.113,1.124.818,3.146.894,6.714v.038a.266.266,0,0,1-.011.077,1.119,1.119,0,0,0-.042.281.485.485,0,0,0,.459.51h.026a.485.485,0,0,0,.484-.46.392.392,0,0,1,.013-.083,1.069,1.069,0,0,0,.041-.385C1.78,2.7,3.526,1.812,5.057,1.48A.486.486,0,0,0,5.429.9.488.488,0,0,0,4.954.519" transform="translate(-0.264)" fill="url(#a)"/><path d="M3.287,80.967a.744.744,0,0,1-.558-.251c-.04-.045-.059-.062-.059-.062a.744.744,0,0,1-.088-1.1.745.745,0,0,1,1.432.405c0,.019-.008.037-.013.055a.745.745,0,0,1-.714.958" transform="translate(-1.956 -65.067)" fill="url(#a)"/><path d="M2.076,80.02a1.006,1.006,0,0,1-.753-.338l-.035-.038a1,1,0,0,1-.342-1.068,1.006,1.006,0,0,1,.2-.37,1.124,1.124,0,1,1,.931,1.815m0-1.92a.484.484,0,0,0-.458.327.26.26,0,0,1-.057.095.485.485,0,0,0,.056.719l.017.014a1.039,1.039,0,0,1,.079.083.5.5,0,0,0,.686.042.488.488,0,0,0,.144-.5.261.261,0,0,1,0-.135l.012-.05a.486.486,0,0,0-.368-.581.5.5,0,0,0-.107-.012" transform="translate(-0.745 -63.86)" fill="url(#a)"/><line x2="17" transform="translate(11.5 10.5)" fill="none" stroke="#8e00d2" stroke-linecap="round" stroke-width="2"/><line x2="17" transform="translate(11.5 14.94)" fill="none" stroke="#491bba" stroke-linecap="round" stroke-width="2"/><line x2="10" transform="translate(11.5 19.38)" fill="none" stroke="#04329a" stroke-linecap="round" stroke-width="2"/></g></svg>