<?xml version="1.0" encoding="utf-8"?>
<!-- Generator: Adobe Illustrator 27.6.1, SVG Export Plug-In . SVG Version: 6.00 Build 0)  -->
<svg version="1.1" id="Calque_2" xmlns="http://www.w3.org/2000/svg" xmlns:xlink="http://www.w3.org/1999/xlink" x="0px" y="0px"
	 viewBox="0 0 72 82" style="enable-background:new 0 0 72 82;" xml:space="preserve">
<style type="text/css">
	.st0{fill:#FFFFFF;}
</style>
<g>
	<path class="st0" d="M41.5,75c-0.2,0.1-0.4,0.2-0.6,0.2l-26.8,3.2c-0.9,0.1-1.8-0.6-1.9-1.5l-8-65.8c-0.1-0.9,0.6-1.8,1.5-1.9
		l54.9-6.6c0.9-0.1,1.8,0.6,1.9,1.5l1.5,12.4c0.2,0.9-0.4,1.8-1.4,2c-0.9,0.2-1.8-0.4-2-1.4c0-0.1,0-0.1,0-0.2L59.4,6.2L7.9,12.4
		l7.6,62.4l25.1-3c0.9-0.1,1.8,0.6,1.9,1.5C42.5,74,42.1,74.7,41.5,75"/>
	<path class="st0" d="M53.9,73.5c-0.2,0.1-0.4,0.2-0.6,0.2l-3.5,0.4c-0.9,0.2-1.8-0.4-2-1.4c-0.2-0.9,0.4-1.8,1.4-2
		c0.1,0,0.1,0,0.2,0l1.8-0.2l-1.9-15.7c-0.1-0.9,0.6-1.8,1.5-1.9c0,0,0,0,0,0l14-1.6l-2.9-24c-0.1-0.9,0.7-1.7,1.6-1.8
		c0.9,0,1.6,0.5,1.8,1.4l3.1,25.7c0.1,0.9-0.6,1.8-1.5,1.9c0,0,0,0,0,0l-14,1.6l1.9,15.7C54.8,72.5,54.5,73.2,53.9,73.5"/>
	<path class="st0" d="M54.9,72.8c-0.8,0.4-1.9,0.1-2.3-0.7c-0.3-0.6-0.2-1.2,0.1-1.8L65,53c0.6-0.7,1.7-0.8,2.4-0.2
		c0.7,0.5,0.8,1.5,0.4,2.2L55.5,72.3C55.3,72.5,55.1,72.7,54.9,72.8"/>
	<path class="st0" d="M54,43.7c-0.2,0.1-0.4,0.2-0.6,0.2L27.9,47c-0.9,0.1-1.7-0.7-1.8-1.6c0-0.9,0.5-1.6,1.4-1.8L53,40.5
		c0.9-0.1,1.8,0.6,1.9,1.5C55,42.7,54.6,43.4,54,43.7"/>
	<path class="st0" d="M53.3,37.6c-0.2,0.1-0.4,0.2-0.6,0.2l-25.5,3.1c-0.9,0.1-1.7-0.7-1.8-1.6c0-0.9,0.5-1.6,1.4-1.8l25.5-3.1
		c0.9-0.1,1.8,0.6,1.9,1.5C54.2,36.6,53.9,37.3,53.3,37.6"/>
	<path class="st0" d="M54.7,49.8c-0.2,0.1-0.4,0.2-0.6,0.2l-25.5,3.1c-0.9,0.1-1.7-0.7-1.8-1.6c0-0.9,0.5-1.6,1.4-1.8l25.5-3.1
		c0.9-0.1,1.8,0.6,1.9,1.5C55.7,48.8,55.3,49.5,54.7,49.8"/>
	<path class="st0" d="M47,57.1c-0.2,0.1-0.4,0.2-0.6,0.2l-17,2.1c-0.9,0.1-1.7-0.7-1.8-1.6c0-0.9,0.5-1.6,1.4-1.8l17-2.1
		c0.9-0.1,1.8,0.6,1.9,1.5C48,56.1,47.6,56.8,47,57.1"/>
	<path class="st0" d="M23.1,41.1c-0.2,0.1-0.4,0.2-0.6,0.2l-0.2,0c-0.9,0.1-1.7-0.7-1.8-1.6c0-0.9,0.5-1.6,1.4-1.8l0.2,0
		c0.9-0.1,1.8,0.6,1.9,1.5C24,40.1,23.7,40.8,23.1,41.1"/>
	<path class="st0" d="M23.8,47.3c-0.2,0.1-0.4,0.2-0.6,0.2l-0.2,0c-0.9,0.1-1.7-0.7-1.8-1.6c0-0.9,0.5-1.6,1.4-1.8l0.2,0
		c0.9-0.1,1.8,0.6,1.9,1.5C24.8,46.3,24.4,46.9,23.8,47.3"/>
	<path class="st0" d="M24.6,53.4c-0.2,0.1-0.4,0.2-0.6,0.2l-0.2,0C22.8,53.6,22,52.9,22,52c0-0.9,0.5-1.6,1.4-1.8l0.2,0
		c0.9-0.1,1.8,0.6,1.9,1.5C25.5,52.4,25.2,53.1,24.6,53.4"/>
	<path class="st0" d="M25.3,59.8c-0.2,0.1-0.4,0.2-0.6,0.2l-0.2,0c-0.9,0.2-1.8-0.4-2-1.4c-0.2-0.9,0.4-1.8,1.4-2c0.1,0,0.1,0,0.2,0
		l0.2,0c0.9-0.1,1.8,0.6,1.9,1.5C26.3,58.8,26,59.4,25.3,59.8"/>
	<path class="st0" d="M45.8,74.5c-0.2,0.1-0.4,0.2-0.6,0.2l-0.2,0c-0.9,0.1-1.7-0.7-1.8-1.6c0-0.9,0.5-1.6,1.4-1.8l0.2,0
		c0.9-0.1,1.8,0.6,1.9,1.5C46.8,73.5,46.4,74.2,45.8,74.5"/>
	<path class="st0" d="M63.7,23.1c-0.8,0.4-1.9,0.1-2.3-0.7c-0.1-0.2-0.2-0.4-0.2-0.6l0-0.2c-0.2-0.9,0.4-1.8,1.4-2
		c0.9-0.2,1.8,0.4,2,1.4c0,0.1,0,0.1,0,0.2l0,0.2C64.7,22.1,64.4,22.8,63.7,23.1"/>
	<path class="st0" d="M52.6,26c-0.2,0.1-0.4,0.2-0.6,0.2L20.8,30c-0.9,0.1-1.8-0.6-1.9-1.5l-0.6-5.3c-0.1-0.9,0.6-1.8,1.5-1.9
		l31.2-3.8c0.9-0.1,1.8,0.6,1.9,1.5l0.6,5.3C53.6,25,53.2,25.7,52.6,26 M22.1,26.4l27.8-3.4l-0.2-1.9l-27.8,3.4L22.1,26.4z"/>
	<path class="st0" d="M6.1,67.3c0.1,0.2,0.2,0.4,0.2,0.6l1.1,9c0.1,0.9-0.7,1.7-1.6,1.8c-0.9,0-1.6-0.5-1.8-1.4l-1.1-9
		c-0.1-0.9,0.6-1.8,1.5-1.9C5.1,66.4,5.8,66.7,6.1,67.3"/>
</g>
</svg>
